<svg xmlns="http://www.w3.org/2000/svg" xmlns:xlink="http://www.w3.org/1999/xlink" width="256" height="256" viewBox="0 0 256 256">
  <defs>
    <linearGradient id="a" x1="46.364" y1="225.29" x2="209.636" y2="30.71" gradientUnits="userSpaceOnUse">
      <stop offset="0" stop-color="#0bf4f4"/>
      <stop offset="1" stop-color="#3f21f4"/>
    </linearGradient>
  </defs>
  <title>gradient_logo</title>
  <path d="M128,1A127,127,0,1,0,255,128,127,127,0,0,0,128,1Zm19.35,93.878q-4.86-5.1-4.859-13.174a16.625,16.625,0,0,1,4.859-12.268q4.855-4.856,4.857-7,0-2.3-3.952-2.306-7.9,0-14.079,10.787T128,96.2V195h17v6H75v-6H89V61H75V55h53V71h.659q7.078-16.959,25.689-16.961,11.2,0,18.2,7.163t7,18.855A19.63,19.63,0,0,1,174.027,94.3a18.581,18.581,0,0,1-13.915,5.682Q152.207,99.983,147.35,94.878ZM193.886,197.96a13.949,13.949,0,0,1-10.3,4.3,14.192,14.192,0,0,1-10.352-4.248,14.444,14.444,0,0,1,.049-20.6,14.553,14.553,0,0,1,20.606,20.556Z" fill="url(#a)"/>
</svg>
