<?xml version="1.0" encoding="iso-8859-1"?>
<!-- Generator: Adobe Illustrator 22.0.1, SVG Export Plug-In . SVG Version: 6.00 Build 0)  -->
<svg version="1.1" xmlns="http://www.w3.org/2000/svg" xmlns:xlink="http://www.w3.org/1999/xlink" x="0px" y="0px" width="256px"
	 height="256px" viewBox="0 0 256 256" enable-background="new 0 0 256 256" xml:space="preserve">
<g id="Layer_1">
</g>
<g id="Layer_2">
	<path fill="#fffff" d="M128,1C57.86,1,1,57.86,1,128s56.86,127,127,127s127-56.86,127-127S198.14,1,128,1z M147.35,94.878
		c-3.24-3.402-4.858-7.794-4.858-13.174c0-4.94,1.618-9.029,4.858-12.268c3.237-3.237,4.857-5.571,4.857-6.999
		c0-1.536-1.317-2.305-3.952-2.305c-5.27,0-9.962,3.597-14.079,10.786C130.059,78.109,128,86.536,128,96.195V195h17v6H75v-6h14V61
		H75v-6h53v16h0.659c4.719-11.306,13.282-16.961,25.689-16.961c7.465,0,13.53,2.388,18.197,7.163
		c4.665,4.776,6.998,11.061,6.998,18.855c0,5.71-1.84,10.457-5.516,14.244c-3.679,3.788-8.317,5.681-13.916,5.681
		C154.842,99.983,150.587,98.282,147.35,94.878z M193.886,197.96c-2.832,2.864-6.267,4.297-10.303,4.297
		c-4.037,0-7.487-1.416-10.352-4.248c-2.865-2.832-4.297-6.265-4.297-10.303c0-3.97,1.448-7.405,4.346-10.303
		c2.896-2.896,6.331-4.346,10.303-4.346c4.036,0,7.471,1.433,10.303,4.297c2.832,2.866,4.248,6.315,4.248,10.352
		C198.134,191.678,196.718,195.096,193.886,197.96z"/>
</g>
</svg>
