<?xml version="1.0" encoding="iso-8859-1"?>
<!-- Generator: Adobe Illustrator 22.0.1, SVG Export Plug-In . SVG Version: 6.00 Build 0)  -->
<svg version="1.1" id="Layer_1" xmlns="http://www.w3.org/2000/svg" xmlns:xlink="http://www.w3.org/1999/xlink" x="0px" y="0px"
	 width="24px" height="24px" viewBox="0 0 24 24" enable-background="new 0 0 24 24" xml:space="preserve">
<path fill="none" d="M0,0h24v24H0V0z"/>
<linearGradient id="SVGID_1_" gradientUnits="userSpaceOnUse" x1="1.0012" y1="21.0012" x2="20.4137" y2="1.5887">
	<stop  offset="0" style="stop-color:#3F21F4"/>
	<stop  offset="0.3059" style="stop-color:#3E23F4"/>
	<stop  offset="0.4504" style="stop-color:#3D2BF4"/>
	<stop  offset="0.5611" style="stop-color:#3938F4"/>
	<stop  offset="0.6545" style="stop-color:#354AF4"/>
	<stop  offset="0.7371" style="stop-color:#2F62F4"/>
	<stop  offset="0.812" style="stop-color:#287FF4"/>
	<stop  offset="0.8812" style="stop-color:#1FA2F4"/>
	<stop  offset="0.9439" style="stop-color:#15CAF4"/>
	<stop  offset="1" style="stop-color:#0BF4F4"/>
</linearGradient>
<path fill="url(#SVGID_1_)" d="M20,2H4C2.9,2,2.01,2.9,2.01,4L2,22l4-4h14c1.1,0,2-0.9,2-2V4C22,2.9,21.1,2,20,2z M20,16H5.17
	l-0.59,0.59L4,17.17V4h16V16z M6,12h2v2H6V12z M6,9h2v2H6V9z M6,6h2v2H6V6z M10,12h5v2h-5V12z M10,9h8v2h-8V9z M10,6h8v2h-8V6z"/>
</svg>
