<?xml version="1.0" encoding="iso-8859-1"?>
<!-- Generator: Adobe Illustrator 22.0.1, SVG Export Plug-In . SVG Version: 6.00 Build 0)  -->
<svg version="1.1" xmlns="http://www.w3.org/2000/svg" xmlns:xlink="http://www.w3.org/1999/xlink" x="0px" y="0px" width="1920px"
	 height="1080px" viewBox="0 0 1920 1080" enable-background="new 0 0 1920 1080" xml:space="preserve">
<g id="Layer_1" display="none">
	<g display="inline">
		<rect x="-3.5" y="0.5" width="1919" height="1079"/>
		<path d="M1915,1v1078H-3V1H1915 M1916,0H-4v1080h1920V0L1916,0z"/>
	</g>
</g>
<g id="Layer_2">
	<g>
		<circle fill="#FFFFFF" cx="258.237" cy="141.254" r="3.254"/>
	</g>
	<g>
		<circle fill="#FFFFFF" cx="570.956" cy="258.382" r="9.138"/>
	</g>
	<g opacity="0.5">
		<circle fill="#FFFFFF" cx="817.282" cy="285.398" r="9.138"/>
	</g>
	<g opacity="0.8">
		<circle fill="#FFFFFF" cx="994.478" cy="186.073" r="9.138"/>
	</g>
	<g opacity="0.5">
		<circle fill="#FFFFFF" cx="1165.722" cy="1004.29" r="9.138"/>
	</g>
	<g opacity="0.5">
		<circle fill="#FFFFFF" cx="1285.302" cy="147.138" r="9.138"/>
	</g>
	<g>
		<circle fill="#FFFFFF" cx="1472.033" cy="301.29" r="9.138"/>
	</g>
	<g>
		<circle fill="#FFFFFF" cx="1673.862" cy="592.114" r="9.138"/>
	</g>
	<g opacity="0.3">
		<circle fill="#FFFFFF" cx="1669.094" cy="194.814" r="9.138"/>
	</g>
	<g>
		<circle fill="#FFFFFF" cx="445.261" cy="375.811" r="3.254"/>
	</g>
	<g>
		<circle fill="#FFFFFF" cx="599.746" cy="329.409" r="3.254"/>
	</g>
	<g>
		<circle fill="#FFFFFF" cx="485.155" cy="336.2" r="3.254"/>
	</g>
	<g>
		<circle fill="#FFFFFF" cx="784.963" cy="985.39" r="9.138"/>
	</g>
	<g opacity="0.3">
		<circle fill="#FFFFFF" cx="73.605" cy="1041.012" r="9.138"/>
	</g>
	<g>
		<circle fill="#FFFFFF" cx="24.88" cy="433.492" r="9.138"/>
	</g>
	<g opacity="0.5">
		<circle fill="#FFFFFF" cx="419.963" cy="815.39" r="9.138"/>
	</g>
	<g opacity="0.3">
		<circle fill="#FFFFFF" cx="266.605" cy="871.012" r="9.138"/>
	</g>
	<g opacity="0.3">
		<circle fill="#FFFFFF" cx="137.88" cy="741.492" r="9.138"/>
	</g>
	<g>
		<circle fill="#FFFFFF" cx="150.079" cy="271.668" r="3.254"/>
	</g>
	<g>
		<circle fill="#FFFFFF" cx="194.237" cy="809.254" r="3.254"/>
	</g>
	<g>
		<circle fill="#FFFFFF" cx="381.261" cy="1043.811" r="3.254"/>
	</g>
	<g>
		<circle fill="#FFFFFF" cx="535.746" cy="997.409" r="3.254"/>
	</g>
	<g>
		<circle fill="#FFFFFF" cx="421.155" cy="1004.2" r="3.254"/>
	</g>
	<g>
		<circle fill="#FFFFFF" cx="86.079" cy="939.668" r="3.254"/>
	</g>
	<g>
		<circle fill="#FFFFFF" cx="1507.237" cy="809.254" r="3.254"/>
	</g>
	<g>
		<circle fill="#FFFFFF" cx="1694.261" cy="1043.811" r="3.254"/>
	</g>
	<g>
		<circle fill="#FFFFFF" cx="1848.746" cy="997.409" r="3.254"/>
	</g>
	<g>
		<circle fill="#FFFFFF" cx="1734.155" cy="1004.2" r="3.254"/>
	</g>
	<g>
		<circle fill="#FFFFFF" cx="1399.079" cy="939.668" r="3.254"/>
	</g>
	<g>
		<circle fill="#FFFFFF" cx="821.237" cy="926.254" r="3.254"/>
	</g>
	<g>
		<circle fill="#FFFFFF" cx="1008.261" cy="1160.811" r="3.254"/>
	</g>
	<g>
		<circle fill="#FFFFFF" cx="1162.746" cy="1114.409" r="3.254"/>
	</g>
	<g>
		<circle fill="#FFFFFF" cx="1048.155" cy="1121.2" r="3.254"/>
	</g>
	<g>
		<circle fill="#FFFFFF" cx="713.079" cy="1056.668" r="3.254"/>
	</g>
	<g>
		<circle fill="#FFFFFF" cx="677.237" cy="-71.746" r="3.254"/>
	</g>
	<g>
		<circle fill="#FFFFFF" cx="864.261" cy="162.811" r="3.254"/>
	</g>
	<g>
		<circle fill="#FFFFFF" cx="1018.746" cy="116.409" r="3.254"/>
	</g>
	<g>
		<circle fill="#FFFFFF" cx="904.155" cy="123.2" r="3.254"/>
	</g>
	<g>
		<circle fill="#FFFFFF" cx="569.079" cy="58.668" r="3.254"/>
	</g>
	<g>
		<circle fill="#FFFFFF" cx="1507.237" cy="-90.746" r="3.254"/>
	</g>
	<g>
		<circle fill="#FFFFFF" cx="1694.261" cy="143.811" r="3.254"/>
	</g>
	<g opacity="0.3">
		<circle fill="#FFFFFF" cx="1848.746" cy="97.409" r="3.254"/>
	</g>
	<g>
		<circle fill="#FFFFFF" cx="1734.155" cy="104.2" r="3.254"/>
	</g>
	<g opacity="0.3">
		<circle fill="#FFFFFF" cx="1399.079" cy="39.668" r="3.254"/>
	</g>
	<g opacity="0.3">
		<circle fill="#FFFFFF" cx="220.605" cy="341.012" r="9.138"/>
	</g>
	<g>
		<circle fill="#FFFFFF" cx="91.88" cy="211.492" r="9.138"/>
	</g>
	<g>
	</g>
	<g>
	</g>
	<g>
	</g>
	<g>
	</g>
	<g>
	</g>
	<g>
	</g>
	<g>
	</g>
	<g>
	</g>
	<g>
	</g>
	<g>
	</g>
	<g>
	</g>
	<g>
	</g>
	<g>
	</g>
	<g>
	</g>
	<g>
	</g>
</g>
</svg>
