<?xml version="1.0" encoding="iso-8859-1"?>
<!-- Generator: Adobe Illustrator 22.0.1, SVG Export Plug-In . SVG Version: 6.00 Build 0)  -->
<svg version="1.1" xmlns="http://www.w3.org/2000/svg" xmlns:xlink="http://www.w3.org/1999/xlink" x="0px" y="0px" width="256px"
	 height="256px" viewBox="0 0 256 256" enable-background="new 0 0 256 256" xml:space="preserve">
<g id="Layer_1">
	<circle stroke="#FFFFFF" stroke-miterlimit="10" cx="-815.5" cy="128.5" r="128"/>
	<circle fill="#E6158B" stroke="#FFFFFF" stroke-miterlimit="10" cx="-163.5" cy="128.5" r="128"/>
	<circle stroke="#FFFFFF" stroke-miterlimit="10" cx="-815.5" cy="426.5" r="128"/>
	<circle fill="#E6158B" stroke="#FFFFFF" stroke-miterlimit="10" cx="-156.5" cy="429.5" r="128"/>
	<circle stroke="#FFFFFF" stroke-miterlimit="10" cx="-526.5" cy="128.5" r="128"/>
	<circle stroke="#FFFFFF" stroke-miterlimit="10" cx="-526.5" cy="426.5" r="128"/>
	<circle fill="#E6158B" stroke="#FFFFFF" stroke-miterlimit="10" cx="144.5" cy="429.5" r="128"/>
</g>
<g id="Layer_2">
	<g>
		<path fill="#FFFFFF" d="M-875.215,47.292h58.594c9.999,0,18.261,3.301,24.785,9.902c6.522,6.603,9.785,14.981,9.785,25.137
			c0,19.453-10.274,31.055-30.82,34.805v0.586h1.992c9.687,1.25,16.582,3.829,20.684,7.734c4.102,3.907,6.152,9.884,6.152,17.93
			v41.016l0.469,4.336c0,0.782,0.429,1.563,1.289,2.344c0.858,0.782,1.718,1.172,2.578,1.172c3.202,0,5.039-3.358,5.508-10.078
			l4.336,1.055c-0.782,6.251-2.716,10.802-5.801,13.652c-3.087,2.853-8.027,4.277-14.824,4.277c-7.423,0-13.242-2.538-17.461-7.617
			c-4.219-5.077-6.328-12.147-6.328-21.211v-39.258c0-4.219-1.153-7.519-3.457-9.902c-2.305-2.382-5.449-3.574-9.434-3.574h-8.203
			v76.289h10.781v4.102h-50.625v-4.102h10.547V51.159h-10.547V47.292z M-835.371,51.159v64.336h9.609
			c3.437,0,6.25-1.406,8.438-4.219c2.187-2.813,3.281-6.445,3.281-10.898v-30c0-12.812-4.063-19.219-12.188-19.219H-835.371z"/>
		<path fill="#FFFFFF" d="M-763.906,186.901c0-3.97,1.448-7.405,4.346-10.303c2.896-2.896,6.331-4.346,10.303-4.346
			c4.036,0,7.471,1.433,10.303,4.297c2.832,2.866,4.248,6.315,4.248,10.352c0,3.972-1.416,7.39-4.248,10.254
			s-6.267,4.297-10.303,4.297c-4.038,0-7.487-1.416-10.352-4.248C-762.476,194.372-763.906,190.939-763.906,186.901z"/>
	</g>
	<g>
		<path fill="#FFFFFF" d="M-220,51h58.271c9.945,0,18.161,3.281,24.648,9.842c6.486,6.562,9.731,14.89,9.731,24.983
			c0,19.334-10.217,30.865-30.65,34.592V121h2.372c9.611,1.25,16.453,3.829,20.523,7.734c4.07,3.907,6.105,9.884,6.105,17.93v41.016
			l0.465,4.336c0,0.782,0.425,1.563,1.279,2.344c0.853,0.782,1.704,1.172,2.558,1.172c3.178,0,5-3.358,5.465-10.078l4.302,1.055
			c-0.775,6.251-2.694,10.802-5.756,13.652c-3.063,2.853-7.965,4.277-14.709,4.277c-7.365,0-13.14-2.538-17.326-7.617
			c-4.186-5.077-6.279-12.147-6.279-21.211v-39.184c0-4.203-1.148-7.49-3.442-9.865c-2.294-2.373-5.425-3.561-9.392-3.561H-180v76
			h11v5h-51v-4h11V55h-11V51z M-180,55v64h9.462c3.385,0,6.154-1.399,8.308-4.197c2.153-2.798,3.231-6.412,3.231-10.842V74.118
			C-159,61.373-163,55-171,55H-180z"/>
		<path fill="#FFFFFF" d="M-108.612,190.529c0-3.97,1.448-7.405,4.346-10.303c2.896-2.896,6.331-4.346,10.303-4.346
			c4.036,0,7.471,1.433,10.303,4.297c2.832,2.866,4.248,6.315,4.248,10.352c0,3.972-1.416,7.39-4.248,10.254
			s-6.267,4.297-10.303,4.297c-4.037,0-7.487-1.416-10.352-4.248C-107.18,198-108.612,194.567-108.612,190.529z"/>
	</g>
	<g>
		<path fill="#FFFFFF" d="M-895.654,361.306h47.363c8.083,0,14.761,2.669,20.035,8.005c5.272,5.337,7.91,12.11,7.91,20.318
			c0,15.725-8.305,25.103-24.913,28.134v0.474h1.61c7.83,1.011,13.404,3.095,16.719,6.252c3.315,3.159,4.973,7.99,4.973,14.493
			v33.154l0.379,3.505c0,0.632,0.346,1.265,1.042,1.895c0.694,0.632,1.388,0.947,2.084,0.947c2.589,0,4.073-2.714,4.452-8.146
			l3.505,0.853c-0.632,5.054-2.195,8.731-4.689,11.036c-2.495,2.306-6.488,3.457-11.982,3.457c-6,0-10.704-2.051-14.114-6.157
			c-3.41-4.104-5.115-9.818-5.115-17.146v-31.733c0-3.41-0.933-6.077-2.794-8.004c-1.863-1.926-4.405-2.89-7.625-2.89h-6.631v61.667
			h8.715v3.315h-40.922v-3.315h8.525V364.432h-8.525V361.306z M-863.447,364.432v52.005h7.768c2.778,0,5.052-1.137,6.82-3.41
			c1.767-2.273,2.652-5.21,2.652-8.81v-24.25c0-10.356-3.284-15.535-9.852-15.535H-863.447z"/>
		<path fill="#FFFFFF" d="M-806.99,361.306h40.354c5.431,0,11.334,1.942,17.714,5.826c6.378,3.884,11.287,10.704,14.729,20.461
			c3.441,9.757,5.163,22.087,5.163,36.99c0,18.945-3.505,33.708-10.515,44.285c-7.01,10.578-16.705,15.866-29.081,15.866h-38.364
			v-3.126h8.715V364.621h-8.715V361.306z M-774.594,364.621v116.798h5.399c8.651,0,12.978-5.999,12.978-17.998v-86.77
			c0-3.661-0.995-6.583-2.984-8.762s-4.657-3.269-8.004-3.269H-774.594z"/>
	</g>
	<g>
		<path fill="#FFFFFF" d="M-240,367h47.932c8.18,0,14.939,2.671,20.276,8.014c5.335,5.344,8.004,12.125,8.004,20.344
			c0,15.744-8.404,25.133-25.212,28.168V424h1.698c7.689,1.011,13.163,3.095,16.419,6.252c3.256,3.158,4.883,7.989,4.883,14.493
			v33.154l0.372,3.505c0,0.632,0.34,1.264,1.023,1.895c0.682,0.632,1.364,0.947,2.047,0.947c2.542,0,4-2.715,4.372-8.146
			l3.442,0.853c-0.62,5.053-2.155,8.73-4.604,11.035c-2.451,2.307-6.373,3.458-11.768,3.458c-5.892,0-10.512-2.052-13.86-6.157
			c-3.349-4.104-5.023-9.819-5.023-17.146v-32.19c0-3.429-0.93-6.11-2.786-8.048c-1.858-1.936-4.392-2.904-7.603-2.904H-207v62h9v3
			h-42v-3h9V370h-9V367z M-207,370v52h7.659c2.74,0,4.981-1.137,6.725-3.41c1.743-2.273,2.615-5.209,2.615-8.809v-24.248
			c0-10.355-3.238-15.534-9.714-15.534H-207z"/>
		<path fill="#FFFFFF" d="M-151,367h40.213c5.412,0,11.296,1.935,17.652,5.805c6.356,3.87,11.248,10.667,14.679,20.39
			c3.429,9.723,5.144,22.011,5.144,36.863c0,18.88-3.493,33.591-10.478,44.13C-90.774,484.729-100.435,490-112.769,490H-151v-3h9
			V370h-9V367z M-118,370v117h5.289c8.474,0,12.711-6.009,12.711-18.029v-86.92c0-3.668-0.974-6.595-2.922-8.778
			c-1.948-2.182-4.563-3.273-7.841-3.273H-118z"/>
	</g>
	<g>
		<path fill="#FFFFFF" d="M-526.908,52.258v15.679h0.66c4.729-11.331,13.312-16.999,25.746-16.999c7.48,0,13.559,2.393,18.236,7.179
			c4.676,4.786,7.015,11.086,7.015,18.897c0,5.722-1.844,10.48-5.529,14.276c-3.688,3.796-8.334,5.694-13.945,5.694
			c-5.281,0-9.547-1.705-12.791-5.116c-3.246-3.409-4.868-7.811-4.868-13.203c0-4.951,1.622-9.049,4.868-12.295
			c3.244-3.244,4.869-5.583,4.869-7.014c0-1.54-1.32-2.311-3.961-2.311c-5.281,0-9.985,3.605-14.111,10.81
			c-4.126,7.208-6.188,15.653-6.188,25.333v99.023h16.174v5.776h-68.986v-5.776h13.533V58.034h-13.863v-5.776H-526.908z"/>
		<path fill="#FFFFFF" d="M-486.398,184.901c0-3.97,1.448-7.405,4.346-10.303c2.896-2.896,6.331-4.346,10.303-4.346
			c4.036,0,7.471,1.433,10.303,4.297c2.832,2.866,4.248,6.315,4.248,10.352c0,3.972-1.416,7.39-4.248,10.254
			s-6.267,4.297-10.303,4.297c-4.038,0-7.487-1.416-10.352-4.248C-484.968,192.372-486.398,188.939-486.398,184.901z"/>
	</g>
	<path fill="#4B53A4" d="M128,1C57.86,1,1,57.86,1,128s56.86,127,127,127s127-56.86,127-127S198.14,1,128,1z M147.35,94.878
		c-3.24-3.402-4.858-7.794-4.858-13.174c0-4.94,1.618-9.029,4.858-12.268c3.237-3.237,4.857-5.571,4.857-6.999
		c0-1.536-1.317-2.305-3.952-2.305c-5.27,0-9.962,3.597-14.079,10.786C130.059,78.109,128,86.536,128,96.195V195h17v6H75v-6h14V61
		H75v-6h53v16h0.659c4.719-11.306,13.282-16.961,25.689-16.961c7.465,0,13.53,2.388,18.197,7.163
		c4.665,4.776,6.998,11.061,6.998,18.855c0,5.71-1.84,10.457-5.516,14.244c-3.679,3.788-8.317,5.681-13.916,5.681
		C154.842,99.983,150.587,98.282,147.35,94.878z M193.886,197.96c-2.832,2.864-6.267,4.297-10.303,4.297
		c-4.037,0-7.487-1.416-10.352-4.248c-2.865-2.832-4.297-6.265-4.297-10.303c0-3.97,1.448-7.405,4.346-10.303
		c2.896-2.896,6.331-4.346,10.303-4.346c4.036,0,7.471,1.433,10.303,4.297c2.832,2.866,4.248,6.315,4.248,10.352
		C198.134,191.678,196.718,195.096,193.886,197.96z"/>
	<g>
		<path fill="#FFFFFF" d="M-566.041,383.726v10.437h0.439c3.148-7.543,8.861-11.315,17.139-11.315c4.98,0,9.026,1.593,12.141,4.778
			c3.111,3.187,4.669,7.38,4.669,12.58c0,3.809-1.228,6.976-3.681,9.503c-2.455,2.526-5.548,3.79-9.283,3.79
			c-3.516,0-6.355-1.135-8.515-3.405c-2.161-2.27-3.241-5.2-3.241-8.789c0-3.296,1.08-6.023,3.241-8.186
			c2.159-2.159,3.241-3.716,3.241-4.669c0-1.024-0.879-1.538-2.637-1.538c-3.516,0-6.646,2.4-9.394,7.196
			c-2.746,4.798-4.12,10.42-4.12,16.864v65.918h10.767v3.845h-45.923v-3.845h9.009V387.57h-9.229v-3.845H-566.041z"/>
		<path fill="#FFFFFF" d="M-492.021,337.583h36.255V476.89h9.229v3.845h-35.376v-6.701c-3.509,3.296-6.303,5.457-8.386,6.481
			c-2.082,1.025-4.767,1.538-8.054,1.538c-8.843,0-16.06-4.361-21.648-13.087c-5.59-8.726-8.384-20.201-8.384-34.425
			c0-16.571,2.775-29.458,8.329-38.66c5.553-9.201,13.227-13.804,23.018-13.804c5.919,0,10.961,2.417,15.125,7.251v-47.9h-10.107
			V337.583z M-481.913,461.38v-63.372c-1.455-3.516-2.894-6.005-4.312-7.471c-1.42-1.465-3.185-2.197-5.294-2.197
			c-4.949,0-7.423,4.95-7.423,14.851v55.661c0,4.914,0.745,8.783,2.236,11.605c1.492,2.824,3.513,4.235,6.06,4.235
			c2.4,0,4.457-1.266,6.166-3.796C-482.77,468.366-481.913,465.194-481.913,461.38z"/>
	</g>
	<g>
		<path fill="#FFFFFF" d="M102,391v10h0.441c3.159-7.568,8.891-11.353,17.195-11.353c4.997,0,9.056,1.598,12.181,4.794
			c3.122,3.197,4.684,7.404,4.684,12.621c0,3.822-1.232,7-3.693,9.535c-2.463,2.535-5.566,3.803-9.314,3.803
			c-3.527,0-6.376-1.139-8.543-3.417c-2.168-2.277-3.252-5.217-3.252-8.818c0-3.308,1.084-6.043,3.252-8.213
			c2.166-2.166,3.252-3.729,3.252-4.684c0-1.028-0.882-1.543-2.645-1.543c-3.527,0-6.668,2.408-9.424,7.22
			c-2.755,4.814-4.134,10.453-4.134,16.92V484h11v4H67v-4h9v-89h-9v-4H102z"/>
		<path fill="#FFFFFF" d="M176,345h37v139h9v4h-35v-7.119c0,0-6.905,5.457-8.988,6.482c-2.082,1.025-4.767,1.538-8.054,1.538
			c-8.843,0-16.06-4.362-21.648-13.087c-5.59-8.727-8.384-20.201-8.384-34.426c0-16.57,2.775-29.457,8.329-38.66
			c5.553-9.201,13.227-13.803,23.018-13.803c5.919,0,10.961,2.417,15.728,7.251V348h-11V345z M186,468.179v-63.268
			c-1.453-3.51-2.889-5.994-4.304-7.458c-1.418-1.461-3.179-2.194-5.285-2.194c-4.941,0-7.411,4.943-7.411,14.827v55.568
			c0,4.907,0.744,8.77,2.233,11.587c1.49,2.819,3.507,4.228,6.049,4.228c2.396,0,4.45-1.264,6.156-3.79
			C185.145,475.154,186,471.987,186,468.179z"/>
	</g>
	<g>
	</g>
	<g>
	</g>
	<g>
	</g>
	<g>
	</g>
	<g>
	</g>
	<g>
	</g>
</g>
</svg>
